<svg xmlns="http://www.w3.org/2000/svg" width="512" height="512" viewBox="0 0 97.75 97.75"><g fill="#FFF"><path d="M50.73 33.67c0-6.775-4.04-17.31-11.827-17.31-2.448 0-5.07 1.22-6.577 3.104-1.598 1.98-2.062 4.51-2.062 6.965 0 6.3 3.658 16.74 11.736 16.74 2.345 0 4.872-1.123 6.382-2.63 2.16-2.17 2.347-5.175 2.347-6.87zM45.657 58.414c-.748-.094-1.218-.094-2.156-.094-.846 0-5.917.185-9.858 1.51-2.064.75-8.07 3.01-8.07 9.688 0 6.682 6.477 11.485 16.52 11.485 9.016 0 13.805-4.338 13.805-10.163 0-4.813-3.1-7.344-10.24-12.426z"/><path d="M48.875 0C21.882 0 0 21.882 0 48.875S21.882 97.75 48.875 97.75 97.75 75.868 97.75 48.875 75.868 0 48.875 0zM37.49 84.945c-13.617 0-20.185-6.488-20.185-13.455 0-3.385 1.687-8.18 7.227-11.475 5.818-3.576 13.71-4.043 17.936-4.334-1.32-1.69-2.816-3.478-2.816-6.394 0-1.597.47-2.54.934-3.67-1.034.097-2.062.19-3.002.19-9.948 0-15.58-7.44-15.58-14.776 0-4.322 1.968-9.124 6.004-12.605 5.354-4.422 12.67-5.622 17.744-5.622H64.25l-6.105 3.836H52.33c2.157 1.785 6.657 5.548 6.657 12.702 0 6.957-3.938 10.26-7.88 13.36-1.222 1.22-2.63 2.538-2.63 4.61 0 2.066 1.41 3.194 2.44 4.048l3.382 2.628c4.13 3.48 7.887 6.68 7.885 13.177 0 8.847-8.55 17.78-24.696 17.78zm40.515-37.22v9.464H73.36v-9.465h-9.394v-4.697h9.393v-9.406h4.645v9.406h9.438v4.697h-9.438z"/></g></svg>