<svg xmlns="http://www.w3.org/2000/svg" width="512" height="512" viewBox="0 0 97.75 97.75"><g fill="#FFF"><ellipse cx="48.944" cy="48.719" rx="14.465" ry="14.017"/><path d="M71.333 49.5c0 11.982-10.024 21.693-22.39 21.693S26.556 61.483 26.556 49.5c0-2.146.324-4.22.924-6.18h-6.617V73.75c0 1.576 1.288 2.863 2.863 2.863h50.16c1.575 0 2.864-1.286 2.864-2.862V43.32h-6.34c.598 1.96.923 4.034.923 6.18zM65.332 35.11h8.14c1.785 0 3.243-1.458 3.243-3.242v-7.762c0-1.785-1.458-3.243-3.242-3.243h-8.14c-1.786 0-3.244 1.458-3.244 3.243v7.762c-.002 1.783 1.457 3.242 3.242 3.242z"/><path d="M48.875 0C21.882 0 0 21.882 0 48.875S21.882 97.75 48.875 97.75 97.75 75.868 97.75 48.875 75.868 0 48.875 0zm26.77 84.89h-53.54c-5.086 0-9.245-3.764-9.245-9.243V22.105c0-5.48 4.16-9.245 9.246-9.245h53.54c5.085 0 9.245 3.764 9.245 9.245v53.542c0 5.48-4.16 9.244-9.245 9.244z"/></g></svg>