<svg xmlns="http://www.w3.org/2000/svg" width="512" height="512" viewBox="0 0 97.75 97.75"><g fill="#FFF"><path d="M69.682 47.32c0-3.81-1.367-6.448-2.54-8.502-1.562-2.54-3.028-4.688-3.028-7.228 0-2.834 2.15-5.47 5.178-5.47.136 0 .268.016.398.023-5.483-5.023-12.79-8.09-20.812-8.09-10.77 0-20.24 5.523-25.753 13.892.723.02 1.405.037 1.984.037 3.223 0 8.213-.392 8.213-.392 1.66-.1 1.857 2.343.198 2.54 0 0-1.67.195-3.526.292l11.222 33.39 6.746-20.23-4.803-13.157c-1.66-.097-3.233-.293-3.233-.293-1.66-.098-1.466-2.637.195-2.54 0 0 5.09.392 8.117.392 3.223 0 8.215-.39 8.215-.39 1.663-.1 1.856 2.34.196 2.538 0 0-1.673.196-3.526.293l11.14 33.133 3.073-10.272c1.332-4.266 2.345-7.33 2.345-9.967zM18.054 48.874c0 12.2 7.09 22.743 17.372 27.74L20.722 36.33c-1.71 3.833-2.668 8.076-2.668 12.544z"/><path d="M49.417 51.57l-9.25 26.87c2.763.813 5.683 1.258 8.71 1.258 3.588 0 7.03-.62 10.234-1.748-.083-.132-.157-.27-.22-.425L49.417 51.57zM64.37 75.516c9.164-5.343 15.327-15.27 15.327-26.64 0-5.36-1.368-10.398-3.776-14.79.135.982.21 2.037.21 3.17 0 3.128-.584 6.644-2.345 11.04l-9.415 27.22z"/><path d="M48.875 0C21.882 0 0 21.882 0 48.875S21.882 97.75 48.875 97.75 97.75 75.868 97.75 48.875 75.868 0 48.875 0zm0 83.156c-18.9 0-34.28-15.38-34.28-34.282 0-18.902 15.378-34.28 34.28-34.28s34.28 15.378 34.28 34.28c0 18.903-15.378 34.282-34.28 34.282z"/></g></svg>