<svg xmlns="http://www.w3.org/2000/svg" width="512" height="512" viewBox="0 0 97.75 97.75"><path d="M48.875 0C21.883 0 0 21.882 0 48.875S21.883 97.75 48.875 97.75 97.75 75.868 97.75 48.875 75.867 0 48.875 0zm-29.79 62.536c-.572-4.572-.227-11.017.344-13.54.63-2.792 2.18-3.49 4.83-2.427 5.234 2.096 10.454 4.227 15.672 6.364 1.648.676 2.373 1.846 2.3 3.545-.07 1.61-.867 2.63-2.58 3.175-5.496 1.752-10.99 3.51-16.503 5.213-2.193.677-3.574-.07-4.064-2.332zm29.65 22.778c-.023 2.21-1.157 3.387-3.348 3.17-4.886-.483-9.396-2.148-13.44-4.922-1.834-1.258-1.98-2.873-.564-4.582 3.75-4.514 7.537-8.996 11.336-13.47 1.062-1.25 2.486-1.53 4.017-.923 1.432.57 2.093 1.56 2.1 3.25.016 2.913.005 5.825.005 8.738h-.097c0 2.914.025 5.827-.01 8.74zm-.006-40.562c-.673 2.43-3.09 3.142-5.005 1.484-.773-.67-1.434-1.52-1.985-2.388-5.294-8.316-10.557-16.652-15.82-24.988-1.52-2.407-1.216-3.86 1.334-5.153 5.047-2.562 10.414-4.11 16.075-4.45 2.698-.162 3.647.744 3.834 3.416.663 9.53 1.29 19.062 1.957 28.94-.095.83-.085 2.03-.39 3.14zm6.452 3.533c3.45-4.68 6.88-9.376 10.355-14.037 1.488-1.996 3.107-2.19 4.95-.48 3.42 3.177 5.974 6.99 7.605 11.362.884 2.366.103 3.75-2.336 4.376-5.544 1.426-11.104 2.792-16.66 4.176-.333.082-.684.102-.962.14-1.51-.04-2.54-.76-3.203-1.99-.65-1.214-.586-2.413.252-3.547zm22.966 23.253c-1.887 3.72-4.442 6.93-7.575 9.677-.483.424-1.044.79-1.624 1.067-1.366.65-2.634.38-3.43-.88-3.294-5.207-6.553-10.437-9.77-15.69-.823-1.355-.405-2.698.558-3.853.922-1.105 2.12-1.52 3.504-1.062 5.683 1.88 11.354 3.786 17.03 5.686 1.296.433 2.033 1.28 2.115 2.746-.264.77-.443 1.586-.81 2.308z" fill="#FFF"/></svg>